PathFileType	4	(X/Y/Z)	Patient4_TMGait_0pt6_02_right_41.trc.trc
DataRate	CameraRate	NumFrames	NumMarkers	Units	OrigDataRate	OrigDataStartFrame	OrigNumFrames
79.545454545455	79.545454545455	4	33	mm	79.545454545455	53	       141
Frame#	Time	Sacral			L.Shoulder			Chest			R.Shoulder			Neck			R.ASIS			L.ASIS			R.Thigh.Superior			R.Thigh.Lateral			R.Thigh.Inferior			R.Patella			L.Thigh.Superior			L.Thigh.Lateral			L.Thigh.Inferior			L.Patella			L.Shank.Superior			L.Shank.Lateral			L.Shank.Inferior			R.Shank.Superior			R.Shank.Lateral			R.Shank.Inferior			R.Heel			R.Midfoot.Superior			R.Midfoot.Lateral			R.Toe			L.Heel			L.Midfoot.Lateral			L.Midfoot.Superior			L.Toe			L.Elbow			L.Wrist			R.Elbow			R.Wrist			
		X1	Y1	Z1	X2	Y2	Z2	X3	Y3	Z3	X4	Y4	Z4	X5	Y5	Z5	X6	Y6	Z6	X7	Y7	Z7	X8	Y8	Z8	X9	Y9	Z9	X10	Y10	Z10	X11	Y11	Z11	X12	Y12	Z12	X13	Y13	Z13	X14	Y14	Z14	X15	Y15	Z15	X16	Y16	Z16	X17	Y17	Z17	X18	Y18	Z18	X19	Y19	Z19	X20	Y20	Z20	X21	Y21	Z21	X22	Y22	Z22	X23	Y23	Z23	X24	Y24	Z24	X25	Y25	Z25	X26	Y26	Z26	X27	Y27	Z27	X28	Y28	Z28	X29	Y29	Z29	X30	Y30	Z30	X31	Y31	Z31	X32	Y32	Z32	X33	Y33	Z33	

53	50.103714285714	840.636557725430	1017.284121854765	581.471496873978	1023.260226514475	1447.580561339264	398.647166548244	1138.986472200135	1362.171731893128	542.654930958823	1080.433389362618	1436.546003159123	725.746254363347	1045.901207273280	1498.935228816583	550.272681618586	1075.318101277639	946.657455804467	674.860705651884	1034.645516497500	967.910639351994	404.146285085051	1100.273781020489	742.780188523771	648.796381846703	1013.425049354042	638.744653870249	710.758361606184	1085.338076944663	582.400914667478	629.563614378496	1080.028380186946	496.094236819061	635.066654711406	1122.433698265523	796.948279055074	420.329492588518	1077.935143437996	669.934343624552	341.106552682636	1192.142525996029	612.005454733763	388.125614309078	1209.011949336839	521.256484249641	376.491305383548	1143.311695611647	451.386390233104	376.318312175696	999.200693986476	406.989926923351	339.633261820723	992.895280756399	277.938789547153	394.768371456286	1051.997810945597	408.897626338841	641.091988520030	979.140354855694	305.313178090738	700.987805997663	1021.483283788181	210.838671002452	635.730916231184	885.051938401472	46.019294715970	604.551676635594	1058.861372581804	98.113549773375	634.693708221082	971.029517593794	37.960443613139	675.312882338799	1178.951048665189	41.872480098631	656.834234289774	806.795054294197	215.045874474955	447.359891099213	856.726557724351	167.123492166443	363.579345384042	962.955375315354	172.468072529534	376.075209880780	1034.744741731595	57.710197294371	344.196842136255	931.631578003832	1103.570320944147	289.759831177980	997.563145380917	848.693221149649	284.564507563504	1140.511406176263	1104.323489261236	862.858483752798	1355.194276826503	1006.868087908281	760.001157100182	
54	50.116285714286	839.228753154264	1017.833111315633	582.283692578990	1022.525884335232	1447.608853960376	399.794047644845	1138.497913189581	1361.715470491403	543.175114139945	1081.035545794960	1436.299222822178	726.593307949319	1045.804794574531	1498.823271169464	551.413361168683	1073.697546458510	946.516970156665	675.584287920313	1032.981334063171	967.942018276874	404.847718315932	1096.578260469482	742.122726782268	648.908573757197	1009.059070953138	638.725010490770	711.300776687611	1080.142907304107	581.767655537141	629.963125099534	1074.053592374151	495.690761949566	635.435257436309	1121.938648928861	799.569489407317	421.236110323217	1079.788693668646	672.037106945510	341.485562817050	1194.759818289545	616.062127069781	388.652110598375	1213.733212723099	526.200057515495	377.060401162925	1150.943984880875	454.429425379282	376.821373801144	1009.217757284931	403.367043597940	339.643363554208	1009.069719930157	273.989150609679	394.602871922579	1045.671383367731	408.626326067602	641.399588344761	972.440803854552	305.359399920984	701.386575757941	1014.353892434960	210.741361731886	635.915187954486	877.441305068538	46.034548050565	604.624886086473	1051.276249285781	98.085970718822	634.772122210938	963.421956789681	37.925970825718	675.362317708506	1171.336563861712	41.873045905054	656.871713507261	826.065040577732	201.286042900132	446.570962427747	878.729546014327	156.761547480990	362.593642396887	984.517118507573	167.665714791035	375.486083236145	1062.507430827613	57.350427569224	342.964518702137	924.438425219762	1105.005445878863	292.364739642713	977.128465035784	847.078281702453	286.118094646361	1151.345701929432	1105.797316297842	860.929487489820	1370.155285310181	1023.760059338166	754.387553451887	
55	50.128857142857	837.846935228475	1018.273349883100	582.984777181593	1021.801486920907	1447.460668498820	400.772838954137	1138.029973026565	1361.118849147991	543.535555578795	1081.642242833729	1435.952695880481	727.248421129835	1045.710750618163	1498.572727455261	552.362840044231	1072.110448951114	946.235834029106	676.231090416885	1031.365508143525	967.800589591767	405.439084545928	1093.002936336587	741.382399594662	648.974398883169	1004.827337266554	638.609661889398	711.774780218362	1075.100697512943	581.055401092804	630.305618904680	1068.223723451698	495.192220453304	635.739182454048	1121.147803339709	801.608784646159	422.228176367692	1081.234012707239	673.711355612916	341.865538891133	1196.537032453393	619.343386440509	389.580145386236	1217.445653495487	530.571668124973	377.952930160517	1157.819334046085	457.088834770039	377.417700612381	1019.104222639154	398.960923161919	339.492216765733	1025.649302624729	269.488219498310	394.115039393935	1039.457533399781	408.263969164621	641.648958170812	965.851877601191	305.332244246280	701.750478852879	1007.244933845580	210.570401649451	636.057930843937	869.818932304107	46.001363344992	604.696245035854	1043.659362512153	98.046948061944	634.835984402936	955.802319815461	37.870239260514	675.410956573851	1163.708897205878	41.877649586152	656.900015585590	846.636013717615	186.480583755200	445.204541928895	901.969965642649	145.682161047445	361.084485055491	1006.958341831710	162.427168080245	374.464126546605	1091.229841147539	57.059587882275	341.372424430481	917.117298572803	1106.515639302867	294.551982761886	957.787421321229	846.506244029207	287.413496471637	1161.596957349726	1107.399847445415	858.608604295211	1383.513171815278	1040.960078632670	748.667086251959	
56	50.141428571429	836.508872244034	1018.596793884318	583.579229615934	1021.078964521269	1447.161133184488	401.588115457976	1137.579557556534	1360.397394724429	543.743155933648	1082.239299907134	1435.490790188173	727.715380394905	1045.625156729443	1498.191858173949	553.126891595162	1070.583011641543	945.832994514979	676.780629217734	1029.800881551166	967.492207820506	405.906968430945	1089.574879736213	740.567284362620	649.030304669404	1000.720567096843	638.405041789497	712.181248118898	1070.215510422706	580.263742573397	630.611741190755	1062.532206548292	494.605800879318	635.988735060229	1120.074462401499	803.048467118258	423.287394962761	1082.245072077091	674.918950400377	342.252884510729	1197.464535835558	621.790653106164	390.914499133090	1220.138706175699	534.309768850764	379.169329646175	1163.894725398914	459.361115254302	378.100786715003	1028.866698456544	393.910246117297	339.180791540608	1042.562977453748	264.654771408110	393.318781988272	1033.357782906123	407.821703705075	641.849753840685	959.362528702466	305.237917089336	702.078713067044	1000.157986383822	210.332047856652	636.164145749743	862.183202093060	45.925124225076	604.767776945996	1036.014221296352	97.998764939832	634.886831811621	948.171277170325	37.795846671732	675.456079336948	1156.068117359246	41.885735725917	656.920850355564	868.512859613117	171.012027816561	443.293632973253	926.388554045596	134.264638092986	359.087243688662	1030.156861943001	157.055715738278	373.038681860063	1120.663701201620	57.171911238984	339.466402909548	909.823890259191	1108.092955561799	296.301098871532	939.738173548527	846.785008500146	288.551896009994	1171.249926185509	1109.065033508621	855.919206495919	1395.247687283826	1058.263532273518	742.896767441189	
